<svg width="18" height="18" viewBox="0 0 18 18" fill="none" xmlns="http://www.w3.org/2000/svg">
<path d="M9.37406 17.0625H3.05906C1.88156 17.0625 0.914062 16.1175 0.914062 14.9475V3.81752C0.914062 2.67002 1.34156 1.77752 2.12156 1.29002C2.90906 0.795018 3.92906 0.810018 4.98656 1.33502L8.31656 2.97002C9.22406 3.42002 9.93656 4.55252 9.93656 5.55752V16.5C9.93656 16.8075 9.68156 17.0625 9.37406 17.0625ZM3.41906 2.06252C3.15656 2.06252 2.91656 2.12252 2.71406 2.25002C2.27906 2.52002 2.03906 3.08252 2.03906 3.81752V14.9475C2.03906 15.495 2.49656 15.9375 3.05906 15.9375H8.81156V5.55752C8.81156 4.98002 8.34656 4.23752 7.81406 3.98252L4.48406 2.34752C4.10156 2.16002 3.74156 2.06252 3.41906 2.06252Z" fill="#141414"/>
<path d="M14.1075 17.062H9.375C9.0675 17.062 8.8125 16.807 8.8125 16.4995V7.81447C8.8125 7.64197 8.8875 7.48447 9.0225 7.37947C9.1575 7.27447 9.3225 7.22947 9.495 7.26697L9.8475 7.34197L14.7525 8.43697C16.245 8.76697 16.995 9.64447 17.04 11.137C17.0475 11.137 17.0475 11.212 17.0475 11.2945V14.1295C17.04 16.0495 16.0275 17.062 14.1075 17.062ZM9.9375 15.937H14.1075C15.4275 15.937 15.915 15.4495 15.915 14.1295V11.2345C15.8775 10.207 15.4875 9.74947 14.505 9.53197L9.9375 8.51197V15.937Z" fill="#141414"/>
<path d="M6.7275 7.3125H4.125C3.8175 7.3125 3.5625 7.0575 3.5625 6.75C3.5625 6.4425 3.8175 6.1875 4.125 6.1875H6.7275C7.035 6.1875 7.29 6.4425 7.29 6.75C7.29 7.0575 7.0425 7.3125 6.7275 7.3125Z" fill="#141414"/>
<path d="M6.7275 10.3125H4.125C3.8175 10.3125 3.5625 10.0575 3.5625 9.75C3.5625 9.4425 3.8175 9.1875 4.125 9.1875H6.7275C7.035 9.1875 7.29 9.4425 7.29 9.75C7.29 10.0575 7.0425 10.3125 6.7275 10.3125Z" fill="#141414"/>
<path d="M11.4141 13.3119C10.1766 13.3119 9.16406 12.2994 9.16406 11.0619V7.88938C9.16406 7.71688 9.23906 7.55938 9.37406 7.44688C9.50906 7.33438 9.68156 7.29687 9.84656 7.33437L13.2216 8.09188C13.4766 8.15188 13.6641 8.37688 13.6641 8.63938V11.0544C13.6641 12.2994 12.6591 13.3119 11.4141 13.3119ZM10.2891 8.59438V11.0619C10.2891 11.6844 10.7916 12.1869 11.4141 12.1869C12.0366 12.1869 12.5391 11.6844 12.5391 11.0619V9.09688L10.2891 8.59438Z" fill="#141414"/>
<path d="M14.7891 13.3115C13.5516 13.3115 12.5391 12.299 12.5391 11.0615V8.6465C12.5391 8.474 12.6141 8.3165 12.7491 8.2115C12.8841 8.1065 13.0566 8.0615 13.2216 8.099L14.7441 8.4365C16.2366 8.7665 16.9866 9.644 17.0316 11.1365C17.0316 11.1515 17.0316 11.1665 17.0316 11.1815C16.9716 12.374 15.9891 13.3115 14.7891 13.3115ZM13.6641 9.344V11.0615C13.6641 11.684 14.1666 12.1865 14.7891 12.1865C15.3816 12.1865 15.8691 11.729 15.9066 11.144C15.8691 10.199 15.4791 9.749 14.5041 9.5315L13.6641 9.344Z" fill="#141414"/>
</svg>
