<svg width="18" height="18" viewBox="0 0 18 18" fill="none" xmlns="http://www.w3.org/2000/svg">
<path d="M11.25 17.0625H6.75C2.6775 17.0625 0.9375 15.3225 0.9375 11.25V6.75C0.9375 2.6775 2.6775 0.9375 6.75 0.9375H11.25C15.3225 0.9375 17.0625 2.6775 17.0625 6.75V11.25C17.0625 15.3225 15.3225 17.0625 11.25 17.0625ZM6.75 2.0625C3.2925 2.0625 2.0625 3.2925 2.0625 6.75V11.25C2.0625 14.7075 3.2925 15.9375 6.75 15.9375H11.25C14.7075 15.9375 15.9375 14.7075 15.9375 11.25V6.75C15.9375 3.2925 14.7075 2.0625 11.25 2.0625H6.75Z" fill="#141414"/>
<path d="M6.60682 13.6858C6.55432 13.6858 6.49432 13.6858 6.44182 13.6708L5.54932 13.5508C5.00932 13.4758 4.53682 13.0108 4.45432 12.4558L4.32682 11.5483C4.27432 11.1883 4.42432 10.7308 4.68682 10.4608L6.39682 8.75078C6.14182 7.53578 6.50932 6.27578 7.40182 5.39078C8.83432 3.95828 11.1743 3.95828 12.6068 5.39078C13.3043 6.08828 13.6868 7.01078 13.6868 7.99328C13.6868 8.97578 13.3043 9.90578 12.6068 10.5958C11.7143 11.4808 10.4543 11.8483 9.24682 11.5933L7.52932 13.3033C7.31182 13.5358 6.94432 13.6858 6.60682 13.6858ZM10.0043 5.43578C9.35182 5.43578 8.69182 5.68328 8.19682 6.18578C7.52182 6.86078 7.28182 7.84328 7.55932 8.75828C7.61932 8.96078 7.56682 9.17078 7.41682 9.32078L5.48182 11.2558C5.46682 11.2783 5.43682 11.3608 5.43682 11.3908L5.56432 12.2908C5.57182 12.3358 5.65432 12.4183 5.69932 12.4258L6.59932 12.5533C6.63682 12.5458 6.71182 12.5308 6.73432 12.5083L8.67682 10.5658C8.82682 10.4158 9.04432 10.3708 9.23932 10.4308C10.1468 10.7158 11.1293 10.4758 11.8043 9.80078C12.2843 9.32078 12.5543 8.67578 12.5543 7.99328C12.5543 7.31078 12.2918 6.66578 11.8043 6.18578C11.3168 5.69078 10.6568 5.43578 10.0043 5.43578Z" fill="#141414"/>
<path d="M7.83844 12.772C7.69594 12.772 7.55344 12.7195 7.44094 12.607L6.79594 11.962C6.57844 11.7445 6.57844 11.3845 6.79594 11.167C7.01344 10.9495 7.37344 10.9495 7.59094 11.167L8.23594 11.812C8.45344 12.0295 8.45344 12.3895 8.23594 12.607C8.13094 12.7195 7.98844 12.772 7.83844 12.772Z" fill="#141414"/>
<path d="M10.0348 8.84826C9.92984 8.84826 9.83234 8.83326 9.74234 8.79576C9.65234 8.75826 9.56984 8.69826 9.50234 8.63076C9.35984 8.48826 9.27734 8.30076 9.27734 8.09826C9.27734 7.90326 9.35984 7.70826 9.50234 7.57326C9.67484 7.39326 9.93734 7.31076 10.1773 7.36326C10.2223 7.37826 10.2748 7.38576 10.3198 7.40826C10.3648 7.43076 10.4098 7.45326 10.4473 7.47576C10.4848 7.50576 10.5298 7.53576 10.5598 7.57326C10.7023 7.70826 10.7848 7.90326 10.7848 8.09826C10.7848 8.20326 10.7623 8.29326 10.7248 8.39076C10.6873 8.48076 10.6348 8.56326 10.5598 8.63076C10.4173 8.77326 10.2298 8.84826 10.0348 8.84826Z" fill="#141414"/>
</svg>
