<svg width="18" height="18" viewBox="0 0 18 18" fill="none" xmlns="http://www.w3.org/2000/svg">
<path d="M5.84961 11.3609C5.54211 11.3609 5.28711 11.1059 5.28711 10.7984V7.64844C5.28711 7.34094 5.54211 7.08594 5.84961 7.08594C6.15711 7.08594 6.41211 7.34094 6.41211 7.64844V10.7984C6.41211 11.1059 6.15711 11.3609 5.84961 11.3609Z" fill="#141414"/>
<path d="M5.96251 7.9875C4.84501 7.9875 3.9375 7.08001 3.9375 5.96251C3.9375 4.84501 4.84501 3.9375 5.96251 3.9375C7.08001 3.9375 7.98752 4.84501 7.98752 5.96251C7.98752 7.08001 7.08001 7.9875 5.96251 7.9875ZM5.96251 5.0625C5.46751 5.0625 5.0625 5.46751 5.0625 5.96251C5.0625 6.45751 5.46751 6.8625 5.96251 6.8625C6.45751 6.8625 6.86252 6.45751 6.86252 5.96251C6.86252 5.46751 6.45751 5.0625 5.96251 5.0625Z" fill="#141414"/>
<path d="M5.84999 14.0633C4.79249 14.0633 3.9375 13.2083 3.9375 12.1508C3.9375 11.0933 4.79249 10.2383 5.84999 10.2383C6.90749 10.2383 7.76248 11.0933 7.76248 12.1508C7.76248 13.2083 6.90749 14.0633 5.84999 14.0633ZM5.84999 11.3633C5.41499 11.3633 5.0625 11.7158 5.0625 12.1508C5.0625 12.5858 5.41499 12.9383 5.84999 12.9383C6.28499 12.9383 6.63748 12.5858 6.63748 12.1508C6.63748 11.7158 6.28499 11.3633 5.84999 11.3633Z" fill="#141414"/>
<path d="M12.1508 14.0633C11.0933 14.0633 10.2383 13.2083 10.2383 12.1508C10.2383 11.0933 11.0933 10.2383 12.1508 10.2383C13.2083 10.2383 14.0633 11.0933 14.0633 12.1508C14.0633 13.2083 13.2083 14.0633 12.1508 14.0633ZM12.1508 11.3633C11.7158 11.3633 11.3633 11.7158 11.3633 12.1508C11.3633 12.5858 11.7158 12.9383 12.1508 12.9383C12.5858 12.9383 12.9383 12.5858 12.9383 12.1508C12.9383 11.7158 12.5858 11.3633 12.1508 11.3633Z" fill="#141414"/>
<path d="M11.7752 11.3786C11.5427 11.3786 11.3252 11.2361 11.2427 11.0036C10.9427 10.1486 10.1402 9.57856 9.23268 9.57856H9.22518L7.68018 9.58607H7.67267C6.58517 9.58607 5.6327 8.85107 5.3627 7.80107C5.2877 7.50107 5.46769 7.19356 5.76769 7.11856C6.06019 7.04356 6.37517 7.22357 6.45017 7.52357C6.59267 8.07857 7.09517 8.46858 7.67267 8.46858C7.67267 8.46858 7.67268 8.46858 7.68018 8.46858L9.22518 8.46107C9.23268 8.46107 9.23269 8.46107 9.24019 8.46107C10.6202 8.46107 11.8577 9.33857 12.3152 10.6436C12.4202 10.9361 12.2627 11.2586 11.9702 11.3636C11.9027 11.3711 11.8352 11.3786 11.7752 11.3786Z" fill="#141414"/>
<path d="M11.25 17.0625H6.75C2.6775 17.0625 0.9375 15.3225 0.9375 11.25V6.75C0.9375 2.6775 2.6775 0.9375 6.75 0.9375H11.25C15.3225 0.9375 17.0625 2.6775 17.0625 6.75V11.25C17.0625 15.3225 15.3225 17.0625 11.25 17.0625ZM6.75 2.0625C3.2925 2.0625 2.0625 3.2925 2.0625 6.75V11.25C2.0625 14.7075 3.2925 15.9375 6.75 15.9375H11.25C14.7075 15.9375 15.9375 14.7075 15.9375 11.25V6.75C15.9375 3.2925 14.7075 2.0625 11.25 2.0625H6.75Z" fill="#141414"/>
</svg>
