<svg width="18" height="18" viewBox="0 0 18 18" fill="none" xmlns="http://www.w3.org/2000/svg">
    <path d="M6.86992 8.715C6.84742 8.715 6.83242 8.715 6.80992 8.715C6.77242 8.7075 6.71992 8.7075 6.67492 8.715C4.49992 8.6475 2.85742 6.9375 2.85742 4.83C2.85742 2.685 4.60492 0.9375 6.74992 0.9375C8.89492 0.9375 10.6424 2.685 10.6424 4.83C10.6349 6.9375 8.98492 8.6475 6.89242 8.715C6.88492 8.715 6.87742 8.715 6.86992 8.715ZM6.74992 2.0625C5.22742 2.0625 3.98242 3.3075 3.98242 4.83C3.98242 6.33 5.15242 7.5375 6.64492 7.59C6.68992 7.5825 6.78742 7.5825 6.88492 7.59C8.35492 7.5225 9.50992 6.315 9.51742 4.83C9.51742 3.3075 8.27242 2.0625 6.74992 2.0625Z" fill="#141414"/>
    <path d="M12.4048 8.8125C12.3823 8.8125 12.3598 8.8125 12.3373 8.805C12.0298 8.835 11.7148 8.6175 11.6848 8.31C11.6548 8.0025 11.8423 7.725 12.1498 7.6875C12.2398 7.68 12.3373 7.68 12.4198 7.68C13.5148 7.62 14.3698 6.72 14.3698 5.6175C14.3698 4.4775 13.4473 3.555 12.3073 3.555C11.9998 3.5625 11.7448 3.3075 11.7448 3C11.7448 2.6925 11.9998 2.4375 12.3073 2.4375C14.0623 2.4375 15.4948 3.87 15.4948 5.625C15.4948 7.35 14.1448 8.745 12.4273 8.8125C12.4198 8.8125 12.4123 8.8125 12.4048 8.8125Z" fill="#141414"/>
    <path d="M6.87672 16.9125C5.40672 16.9125 3.92922 16.5375 2.81172 15.7875C1.76922 15.0975 1.19922 14.1525 1.19922 13.125C1.19922 12.0975 1.76922 11.145 2.81172 10.4475C5.06172 8.955 8.70672 8.955 10.9417 10.4475C11.9767 11.1375 12.5542 12.0825 12.5542 13.11C12.5542 14.1375 11.9842 15.09 10.9417 15.7875C9.81672 16.5375 8.34672 16.9125 6.87672 16.9125ZM3.43422 11.3925C2.71422 11.8725 2.32422 12.4875 2.32422 13.1325C2.32422 13.77 2.72172 14.385 3.43422 14.8575C5.30172 16.11 8.45172 16.11 10.3192 14.8575C11.0392 14.3775 11.4292 13.7625 11.4292 13.1175C11.4292 12.48 11.0317 11.865 10.3192 11.3925C8.45172 10.1475 5.30172 10.1475 3.43422 11.3925Z" fill="#141414"/>
    <path d="M13.7556 15.5606C13.4931 15.5606 13.2606 15.3806 13.2081 15.1106C13.1481 14.8031 13.3431 14.5106 13.6431 14.4431C14.1156 14.3456 14.5506 14.1581 14.8881 13.8956C15.3156 13.5731 15.5481 13.1681 15.5481 12.7406C15.5481 12.3131 15.3156 11.9081 14.8956 11.5931C14.5656 11.3381 14.1531 11.1581 13.6656 11.0456C13.3656 10.9781 13.1706 10.6781 13.2381 10.3706C13.3056 10.0706 13.6056 9.87556 13.9131 9.94306C14.5581 10.0856 15.1206 10.3406 15.5781 10.6931C16.2756 11.2181 16.6731 11.9606 16.6731 12.7406C16.6731 13.5206 16.2681 14.2631 15.5706 14.7956C15.1056 15.1556 14.5206 15.4181 13.8756 15.5456C13.8306 15.5606 13.7931 15.5606 13.7556 15.5606Z" fill="#141414"/>
</svg>
