<svg width="18" height="18" viewBox="0 0 18 18" fill="none" xmlns="http://www.w3.org/2000/svg">
    <path d="M9 17.0701C8.1825 17.0701 7.3725 16.8301 6.735 16.3576L3.51 13.9501C2.655 13.3126 1.9875 11.9776 1.9875 10.9201V5.34008C1.9875 4.18508 2.835 2.95508 3.9225 2.55008L7.665 1.14758C8.4075 0.870078 9.5775 0.870078 10.32 1.14758L14.0625 2.55008C15.15 2.95508 15.9975 4.18508 15.9975 5.34008V10.9126C15.9975 11.9776 15.33 13.3051 14.475 13.9426L11.25 16.3501C10.6275 16.8301 9.8175 17.0701 9 17.0701ZM8.0625 2.20508L4.32 3.60758C3.6825 3.84758 3.12 4.65758 3.12 5.34758V10.9201C3.12 11.6326 3.6225 12.6301 4.185 13.0501L7.41 15.4576C8.2725 16.1026 9.7275 16.1026 10.5975 15.4576L13.8225 13.0501C14.3925 12.6226 14.8875 11.6326 14.8875 10.9201V5.34008C14.8875 4.65758 14.325 3.84758 13.6875 3.60008L9.945 2.19758C9.435 2.01758 8.565 2.01758 8.0625 2.20508Z" fill="#141414"/>
    <path d="M7.995 10.6723C7.8525 10.6723 7.71 10.6198 7.5975 10.5073L6.39 9.29984C6.1725 9.08234 6.1725 8.72234 6.39 8.50484C6.6075 8.28734 6.9675 8.28734 7.185 8.50484L7.995 9.31484L10.8225 6.48734C11.04 6.26984 11.4 6.26984 11.6175 6.48734C11.835 6.70484 11.835 7.06484 11.6175 7.28234L8.3925 10.5073C8.28 10.6198 8.1375 10.6723 7.995 10.6723Z" fill="#141414"/>
</svg>
