<svg width="18" height="18" viewBox="0 0 18 18" fill="none" xmlns="http://www.w3.org/2000/svg">
    <path d="M11.25 17.0625H6.75C2.6775 17.0625 0.9375 15.3225 0.9375 11.25V6.75C0.9375 2.6775 2.6775 0.9375 6.75 0.9375H11.25C15.3225 0.9375 17.0625 2.6775 17.0625 6.75V11.25C17.0625 15.3225 15.3225 17.0625 11.25 17.0625ZM6.75 2.0625C3.2925 2.0625 2.0625 3.2925 2.0625 6.75V11.25C2.0625 14.7075 3.2925 15.9375 6.75 15.9375H11.25C14.7075 15.9375 15.9375 14.7075 15.9375 11.25V6.75C15.9375 3.2925 14.7075 2.0625 11.25 2.0625H6.75Z" fill="#141414"/>
    <path d="M11.625 14.4375C10.485 14.4375 9.5625 13.515 9.5625 12.375V5.625C9.5625 4.485 10.485 3.5625 11.625 3.5625C12.765 3.5625 13.6875 4.485 13.6875 5.625V12.375C13.6875 13.515 12.765 14.4375 11.625 14.4375ZM11.625 4.6875C11.1075 4.6875 10.6875 5.1075 10.6875 5.625V12.375C10.6875 12.8925 11.1075 13.3125 11.625 13.3125C12.1425 13.3125 12.5625 12.8925 12.5625 12.375V5.625C12.5625 5.1075 12.1425 4.6875 11.625 4.6875Z" fill="#141414"/>
    <path d="M6.375 14.4375C5.235 14.4375 4.3125 13.515 4.3125 12.375V9.75C4.3125 8.61 5.235 7.6875 6.375 7.6875C7.515 7.6875 8.4375 8.61 8.4375 9.75V12.375C8.4375 13.515 7.515 14.4375 6.375 14.4375ZM6.375 8.8125C5.8575 8.8125 5.4375 9.2325 5.4375 9.75V12.375C5.4375 12.8925 5.8575 13.3125 6.375 13.3125C6.8925 13.3125 7.3125 12.8925 7.3125 12.375V9.75C7.3125 9.2325 6.8925 8.8125 6.375 8.8125Z" fill="#141414"/>
</svg>
