<svg width="18" height="18" viewBox="0 0 18 18" fill="none" xmlns="http://www.w3.org/2000/svg">
    <path d="M11.25 17.0625H6.75C2.6775 17.0625 0.9375 15.3225 0.9375 11.25V6.75C0.9375 2.6775 2.6775 0.9375 6.75 0.9375H11.25C15.3225 0.9375 17.0625 2.6775 17.0625 6.75V11.25C17.0625 15.3225 15.3225 17.0625 11.25 17.0625ZM6.75 2.0625C3.2925 2.0625 2.0625 3.2925 2.0625 6.75V11.25C2.0625 14.7075 3.2925 15.9375 6.75 15.9375H11.25C14.7075 15.9375 15.9375 14.7075 15.9375 11.25V6.75C15.9375 3.2925 14.7075 2.0625 11.25 2.0625H6.75Z" fill="#141414"/>
    <path d="M6.6075 13.6877C6.555 13.6877 6.495 13.6877 6.4425 13.6727L5.55 13.5527C5.01 13.4777 4.5375 13.0127 4.455 12.4577L4.3275 11.5502C4.275 11.1902 4.425 10.7327 4.6875 10.4627L6.3975 8.75273C6.1425 7.53773 6.51 6.27773 7.4025 5.39273C8.835 3.96023 11.175 3.96023 12.6075 5.39273C13.305 6.09023 13.6875 7.01273 13.6875 7.99523C13.6875 8.97773 13.305 9.90773 12.6075 10.5977C11.715 11.4827 10.455 11.8502 9.2475 11.5952L7.53 13.3052C7.3125 13.5377 6.945 13.6877 6.6075 13.6877ZM10.005 5.43773C9.3525 5.43773 8.6925 5.68523 8.1975 6.18773C7.5225 6.86273 7.2825 7.84523 7.56 8.76023C7.62 8.96273 7.5675 9.17273 7.4175 9.32273L5.4825 11.2577C5.4675 11.2802 5.4375 11.3627 5.4375 11.3927L5.565 12.2927C5.5725 12.3377 5.655 12.4202 5.7 12.4277L6.6 12.5552C6.6375 12.5477 6.7125 12.5327 6.735 12.5102L8.6775 10.5677C8.8275 10.4177 9.045 10.3727 9.24 10.4327C10.1475 10.7177 11.13 10.4777 11.805 9.80273C12.285 9.32273 12.555 8.67773 12.555 7.99523C12.555 7.31273 12.2925 6.66773 11.805 6.18773C11.3175 5.69273 10.6575 5.43773 10.005 5.43773Z" fill="#141414"/>
    <path d="M7.8375 12.7725C7.695 12.7725 7.5525 12.72 7.44 12.6075L6.795 11.9625C6.5775 11.745 6.5775 11.385 6.795 11.1675C7.0125 10.95 7.3725 10.95 7.59 11.1675L8.235 11.8125C8.4525 12.03 8.4525 12.39 8.235 12.6075C8.13 12.72 7.9875 12.7725 7.8375 12.7725Z" fill="#141414"/>
    <path d="M10.035 8.85021C9.93 8.85021 9.8325 8.83521 9.7425 8.79771C9.6525 8.76021 9.57 8.70021 9.5025 8.63271C9.36 8.49021 9.2775 8.30271 9.2775 8.10021C9.2775 7.90521 9.36 7.71021 9.5025 7.57521C9.675 7.39521 9.9375 7.31271 10.1775 7.36521C10.2225 7.38021 10.275 7.38771 10.32 7.41021C10.365 7.43271 10.41 7.45521 10.4475 7.47771C10.485 7.50771 10.53 7.53771 10.56 7.57521C10.7025 7.71021 10.785 7.90521 10.785 8.10021C10.785 8.20521 10.7625 8.29521 10.725 8.39271C10.6875 8.48271 10.635 8.56521 10.56 8.63271C10.4175 8.77521 10.23 8.85021 10.035 8.85021Z" fill="#141414"/>
</svg>
