<svg width="18" height="18" viewBox="0 0 18 18" fill="none" xmlns="http://www.w3.org/2000/svg">
    <path d="M9 9.5625C6.6225 9.5625 4.6875 7.6275 4.6875 5.25C4.6875 2.8725 6.6225 0.9375 9 0.9375C11.3775 0.9375 13.3125 2.8725 13.3125 5.25C13.3125 7.6275 11.3775 9.5625 9 9.5625ZM9 2.0625C7.245 2.0625 5.8125 3.495 5.8125 5.25C5.8125 7.005 7.245 8.4375 9 8.4375C10.755 8.4375 12.1875 7.005 12.1875 5.25C12.1875 3.495 10.755 2.0625 9 2.0625Z" fill="#141414"/>
    <path d="M2.55762 17.0625C2.25012 17.0625 1.99512 16.8075 1.99512 16.5C1.99512 13.2975 5.13761 10.6875 9.00011 10.6875C9.75761 10.6875 10.5001 10.785 11.2201 10.9875C11.5201 11.07 11.6926 11.3775 11.6101 11.6775C11.5276 11.9775 11.2201 12.15 10.9201 12.0675C10.3051 11.895 9.66011 11.8125 9.00011 11.8125C5.76011 11.8125 3.12012 13.9125 3.12012 16.5C3.12012 16.8075 2.86512 17.0625 2.55762 17.0625Z" fill="#141414"/>
    <path d="M13.5 17.0625C12.255 17.0625 11.085 16.4025 10.455 15.33C10.1175 14.79 9.9375 14.1525 9.9375 13.5C9.9375 12.405 10.425 11.3925 11.2725 10.7175C11.9025 10.215 12.6975 9.9375 13.5 9.9375C15.465 9.9375 17.0625 11.535 17.0625 13.5C17.0625 14.1525 16.8825 14.79 16.545 15.3375C16.3575 15.6525 16.1175 15.9375 15.8325 16.1775C15.21 16.7475 14.3775 17.0625 13.5 17.0625ZM13.5 11.0625C12.945 11.0625 12.42 11.25 11.9775 11.6025C11.4 12.06 11.0625 12.7575 11.0625 13.5C11.0625 13.9425 11.1825 14.3775 11.415 14.7525C11.85 15.4875 12.6525 15.9375 13.5 15.9375C14.0925 15.9375 14.6625 15.72 15.0975 15.33C15.2925 15.165 15.4575 14.97 15.5775 14.76C15.8175 14.3775 15.9375 13.9425 15.9375 13.5C15.9375 12.1575 14.8425 11.0625 13.5 11.0625Z" fill="#141414"/>
    <path d="M13.0724 14.8052C12.9299 14.8052 12.7874 14.7527 12.6749 14.6402L11.9324 13.8977C11.7149 13.6802 11.7149 13.3201 11.9324 13.1026C12.1499 12.8851 12.5099 12.8851 12.7274 13.1026L13.0874 13.4627L14.2874 12.3526C14.5124 12.1426 14.8724 12.1577 15.0824 12.3827C15.2924 12.6077 15.2774 12.9677 15.0524 13.1777L13.4549 14.6552C13.3424 14.7527 13.2074 14.8052 13.0724 14.8052Z" fill="#141414"/>
</svg>
