<svg width="18" height="18" viewBox="0 0 18 18" fill="none" xmlns="http://www.w3.org/2000/svg">
    <path d="M5.84985 11.3624C5.54235 11.3624 5.28735 11.1074 5.28735 10.7999V7.6499C5.28735 7.3424 5.54235 7.0874 5.84985 7.0874C6.15735 7.0874 6.41235 7.3424 6.41235 7.6499V10.7999C6.41235 11.1074 6.15735 11.3624 5.84985 11.3624Z" fill="#141414"/>
    <path d="M5.96251 7.9875C4.84501 7.9875 3.9375 7.08001 3.9375 5.96251C3.9375 4.84501 4.84501 3.9375 5.96251 3.9375C7.08001 3.9375 7.98752 4.84501 7.98752 5.96251C7.98752 7.08001 7.08001 7.9875 5.96251 7.9875ZM5.96251 5.0625C5.46751 5.0625 5.0625 5.46751 5.0625 5.96251C5.0625 6.45751 5.46751 6.8625 5.96251 6.8625C6.45751 6.8625 6.86252 6.45751 6.86252 5.96251C6.86252 5.46751 6.45751 5.0625 5.96251 5.0625Z" fill="#141414"/>
    <path d="M5.84999 14.0623C4.79249 14.0623 3.9375 13.2073 3.9375 12.1498C3.9375 11.0923 4.79249 10.2373 5.84999 10.2373C6.90749 10.2373 7.76248 11.0923 7.76248 12.1498C7.76248 13.2073 6.90749 14.0623 5.84999 14.0623ZM5.84999 11.3623C5.41499 11.3623 5.0625 11.7148 5.0625 12.1498C5.0625 12.5848 5.41499 12.9373 5.84999 12.9373C6.28499 12.9373 6.63748 12.5848 6.63748 12.1498C6.63748 11.7148 6.28499 11.3623 5.84999 11.3623Z" fill="#141414"/>
    <path d="M12.1499 14.0623C11.0924 14.0623 10.2374 13.2073 10.2374 12.1498C10.2374 11.0923 11.0924 10.2373 12.1499 10.2373C13.2074 10.2373 14.0624 11.0923 14.0624 12.1498C14.0624 13.2073 13.2074 14.0623 12.1499 14.0623ZM12.1499 11.3623C11.7149 11.3623 11.3624 11.7148 11.3624 12.1498C11.3624 12.5848 11.7149 12.9373 12.1499 12.9373C12.5849 12.9373 12.9374 12.5848 12.9374 12.1498C12.9374 11.7148 12.5849 11.3623 12.1499 11.3623Z" fill="#141414"/>
    <path d="M11.7751 11.3776C11.5426 11.3776 11.3251 11.2351 11.2426 11.0026C10.9426 10.1476 10.1401 9.57759 9.23256 9.57759H9.22506L7.68006 9.58509H7.67255C6.58505 9.58509 5.63258 8.85009 5.36258 7.80009C5.28758 7.50009 5.46757 7.19259 5.76757 7.11759C6.06007 7.04259 6.37505 7.22259 6.45005 7.52259C6.59255 8.07759 7.09505 8.4676 7.67255 8.4676C7.67255 8.4676 7.67256 8.4676 7.68006 8.4676L9.22506 8.46009C9.23256 8.46009 9.23257 8.46009 9.24007 8.46009C10.6201 8.46009 11.8576 9.3376 12.3151 10.6426C12.4201 10.9351 12.2626 11.2576 11.9701 11.3626C11.9026 11.3701 11.8351 11.3776 11.7751 11.3776Z" fill="#141414"/>
    <path d="M11.25 17.0625H6.75C2.6775 17.0625 0.9375 15.3225 0.9375 11.25V6.75C0.9375 2.6775 2.6775 0.9375 6.75 0.9375H11.25C15.3225 0.9375 17.0625 2.6775 17.0625 6.75V11.25C17.0625 15.3225 15.3225 17.0625 11.25 17.0625ZM6.75 2.0625C3.2925 2.0625 2.0625 3.2925 2.0625 6.75V11.25C2.0625 14.7075 3.2925 15.9375 6.75 15.9375H11.25C14.7075 15.9375 15.9375 14.7075 15.9375 11.25V6.75C15.9375 3.2925 14.7075 2.0625 11.25 2.0625H6.75Z" fill="#141414"/>
</svg>
