<svg width="20" height="20" viewBox="0 0 20 20" fill="none" xmlns="http://www.w3.org/2000/svg">
<path d="M10 18.9669C9.09171 18.9669 8.19171 18.7002 7.48337 18.1752L3.90004 15.5002C2.95004 14.7919 2.20837 13.3085 2.20837 12.1335V5.93353C2.20837 4.6502 3.15004 3.28353 4.35837 2.83353L8.51671 1.2752C9.34171 0.966862 10.6417 0.966862 11.4667 1.2752L15.625 2.83353C16.8334 3.28353 17.775 4.6502 17.775 5.93353V12.1252C17.775 13.3085 17.0334 14.7835 16.0834 15.4919L12.5 18.1669C11.8084 18.7002 10.9084 18.9669 10 18.9669ZM8.95837 2.4502L4.80004 4.00853C4.09171 4.2752 3.46671 5.1752 3.46671 5.94186V12.1335C3.46671 12.9252 4.02504 14.0335 4.65004 14.5002L8.23337 17.1752C9.19171 17.8919 10.8084 17.8919 11.775 17.1752L15.3584 14.5002C15.9917 14.0252 16.5417 12.9252 16.5417 12.1335V5.93353C16.5417 5.1752 15.9167 4.2752 15.2084 4.0002L11.05 2.44186C10.4834 2.24186 9.51671 2.24186 8.95837 2.4502Z" fill="#141414"/>
<path d="M8.88328 11.8586C8.72495 11.8586 8.56662 11.8003 8.44162 11.6753L7.09995 10.3336C6.85828 10.0919 6.85828 9.69193 7.09995 9.45026C7.34162 9.20859 7.74162 9.20859 7.98328 9.45026L8.88328 10.3503L12.025 7.20859C12.2666 6.96693 12.6666 6.96693 12.9083 7.20859C13.15 7.45026 13.15 7.85026 12.9083 8.09193L9.32495 11.6753C9.19995 11.8003 9.04162 11.8586 8.88328 11.8586Z" fill="#141414"/>
</svg>
