<svg width="81" height="80" viewBox="0 0 81 80" fill="none" xmlns="http://www.w3.org/2000/svg">
<path d="M74.2083 16.1669V55.8003C74.2083 59.0336 71.575 62.0003 68.3417 62.4003L67.3083 62.5336C61.8417 63.2669 54.1417 65.5336 47.9417 68.1336C45.775 69.0336 43.375 67.4003 43.375 65.0336V18.6669C43.375 17.4336 44.075 16.3003 45.175 15.7003C51.275 12.4003 60.5083 9.46693 66.775 8.93359H66.975C70.975 8.93359 74.2083 12.1669 74.2083 16.1669Z" fill="url(#paint0_linear_8418_18427)"/>
<path d="M36.575 15.7003C30.475 12.4003 21.2417 9.46693 14.975 8.93359H14.7417C10.7417 8.93359 7.50836 12.1669 7.50836 16.1669L7.50836 55.8003C7.50836 59.0336 10.1417 62.0003 13.375 62.4003L14.4084 62.5336C19.875 63.2669 27.575 65.5336 33.775 68.1336C35.9417 69.0336 38.3417 67.4003 38.3417 65.0336V18.6669C38.3417 17.4003 37.675 16.3003 36.575 15.7003ZM17.5417 25.8003H25.0417C26.4084 25.8003 27.5417 26.9336 27.5417 28.3003C27.5417 29.7003 26.4084 30.8003 25.0417 30.8003H17.5417C16.175 30.8003 15.0417 29.7003 15.0417 28.3003C15.0417 26.9336 16.175 25.8003 17.5417 25.8003ZM27.5417 40.8003H17.5417C16.175 40.8003 15.0417 39.7003 15.0417 38.3003C15.0417 36.9336 16.175 35.8003 17.5417 35.8003H27.5417C28.9084 35.8003 30.0417 36.9336 30.0417 38.3003C30.0417 39.7003 28.9084 40.8003 27.5417 40.8003Z" fill="url(#paint1_linear_8418_18427)"/>
<defs>
<linearGradient id="paint0_linear_8418_18427" x1="58.7917" y1="8.93359" x2="58.7917" y2="68.3846" gradientUnits="userSpaceOnUse">
<stop stop-color="#005399"/>
<stop offset="1" stop-color="#055293"/>
</linearGradient>
<linearGradient id="paint1_linear_8418_18427" x1="22.925" y1="8.93359" x2="22.925" y2="68.3846" gradientUnits="userSpaceOnUse">
<stop stop-color="#005399"/>
<stop offset="1" stop-color="#055293"/>
</linearGradient>
</defs>
</svg>
