<svg width="20" height="20" viewBox="0 0 20 20" fill="none" xmlns="http://www.w3.org/2000/svg">
<path d="M13.9584 2.96699V1.66699C13.9584 1.32533 13.6751 1.04199 13.3334 1.04199C12.9918 1.04199 12.7084 1.32533 12.7084 1.66699V2.91699H7.29178V1.66699C7.29178 1.32533 7.00844 1.04199 6.66678 1.04199C6.32511 1.04199 6.04178 1.32533 6.04178 1.66699V2.96699C3.79178 3.17533 2.70011 4.51699 2.53344 6.50866C2.51678 6.75033 2.71678 6.95033 2.95011 6.95033H17.0501C17.2918 6.95033 17.4918 6.74199 17.4668 6.50866C17.3001 4.51699 16.2084 3.17533 13.9584 2.96699Z" fill="#005399"/>
<path d="M16.6667 8.2002H3.33333C2.875 8.2002 2.5 8.5752 2.5 9.03353V14.1669C2.5 16.6669 3.75 18.3335 6.66667 18.3335H13.3333C16.25 18.3335 17.5 16.6669 17.5 14.1669V9.03353C17.5 8.5752 17.125 8.2002 16.6667 8.2002ZM13.05 16.2752C12.925 16.4002 12.7667 16.4585 12.6083 16.4585C12.45 16.4585 12.2917 16.4002 12.1667 16.2752L11.55 15.6585C11.0667 15.9752 10.4833 16.1669 9.85833 16.1669C8.15833 16.1669 6.775 14.7835 6.775 13.0835C6.775 11.3835 8.15833 10.0002 9.85833 10.0002C11.5583 10.0002 12.9417 11.3835 12.9417 13.0835C12.9417 13.7085 12.75 14.2919 12.4333 14.7752L13.05 15.3919C13.2917 15.6335 13.2917 16.0335 13.05 16.2752Z" fill="#005399"/>
</svg>
