<svg width="40" height="41" viewBox="0 0 40 41" fill="none" xmlns="http://www.w3.org/2000/svg">
<rect x="0.5" y="1" width="39" height="39" rx="19.5" fill="#F8F8FA"/>
<rect x="0.5" y="1" width="39" height="39" rx="19.5" stroke="#EBEBEB"/>
<path d="M15.6001 13.8984H24.4001C25.1334 13.8984 25.7334 14.4984 25.7334 15.2318V16.6984C25.7334 17.2318 25.4001 17.8984 25.0667 18.2318L22.2001 20.7651C21.8001 21.0984 21.5334 21.7651 21.5334 22.2984V25.1651C21.5334 25.5651 21.2667 26.0984 20.9334 26.2984L20.0001 26.8984C19.1334 27.4318 17.9334 26.8318 17.9334 25.7651V22.2318C17.9334 21.7651 17.6667 21.1651 17.4001 20.8318L14.8667 18.1651C14.5334 17.8318 14.2667 17.2318 14.2667 16.8318V15.2984C14.2667 14.4984 14.8667 13.8984 15.6001 13.8984Z" stroke="#141414" stroke-width="1.5" stroke-miterlimit="10" stroke-linecap="round" stroke-linejoin="round"/>
<path d="M19.2867 13.8984L16 19.1651" stroke="#141414" stroke-width="1.5" stroke-miterlimit="10" stroke-linecap="round" stroke-linejoin="round"/>
</svg>
