<svg width="32" height="32" viewBox="0 0 32 32" fill="none" xmlns="http://www.w3.org/2000/svg">
<rect width="32" height="32" rx="16" fill="#F8F8FA"/>
<path d="M13.9752 21.6829C13.8169 21.6829 13.6585 21.6246 13.5335 21.4996L8.4752 16.4413C8.23353 16.1996 8.23353 15.7996 8.4752 15.5579L13.5335 10.4996C13.7752 10.2579 14.1752 10.2579 14.4169 10.4996C14.6585 10.7413 14.6585 11.1413 14.4169 11.3829L9.8002 15.9996L14.4169 20.6163C14.6585 20.8579 14.6585 21.2579 14.4169 21.4996C14.3002 21.6246 14.1335 21.6829 13.9752 21.6829Z" fill="#141414"/>
<path d="M23.0831 16.625H9.05811C8.71644 16.625 8.43311 16.3417 8.43311 16C8.43311 15.6583 8.71644 15.375 9.05811 15.375H23.0831C23.4248 15.375 23.7081 15.6583 23.7081 16C23.7081 16.3417 23.4248 16.625 23.0831 16.625Z" fill="#141414"/>
</svg>
