<svg width="24" height="24" viewBox="0 0 24 24" fill="none" xmlns="http://www.w3.org/2000/svg">
    <path d="M15 12C15 10.34 13.66 9 12 9C10.34 9 9 10.34 9 12C9 13.66 10.34 15 12 15C12.41 15 12.81 14.92 13.17 14.76" stroke="#141414" stroke-width="1.5" stroke-miterlimit="10" stroke-linecap="round" stroke-linejoin="round"/>
    <path d="M6.88 20.5799L7.97 21.2099C8.76 21.6799 9.78 21.3999 10.25 20.6099L10.36 20.4199C11.26 18.8499 12.74 18.8499 13.65 20.4199L13.76 20.6099C14.23 21.3999 15.25 21.6799 16.04 21.2099L17.77 20.2199C18.68 19.6999 18.99 18.5299 18.47 17.6299C17.56 16.0599 18.3 14.7799 20.11 14.7799C21.15 14.7799 22.01 13.9299 22.01 12.8799V11.1199C22.01 10.0799 21.16 9.21995 20.11 9.21995C19.1 9.21995 18.42 8.81995 18.18 8.18995C17.99 7.69995 18.07 7.05995 18.47 6.36995C18.99 5.45995 18.68 4.29995 17.77 3.77995L16.96 3.31995" stroke="#141414" stroke-width="1.5" stroke-miterlimit="10" stroke-linecap="round" stroke-linejoin="round"/>
    <path d="M13.64 3.58006C12.74 5.15006 11.26 5.15006 10.35 3.58006L10.24 3.39006C9.78 2.60006 8.76 2.32006 7.97 2.79006L6.24 3.78006C5.33 4.30006 5.02 5.47006 5.54 6.38006C6.45 7.94006 5.71 9.22006 3.9 9.22006C2.86 9.22006 2 10.0701 2 11.1201V12.8801C2 13.9201 2.85 14.7801 3.9 14.7801C5.71 14.7801 6.45 16.0601 5.54 17.6301" stroke="#141414" stroke-width="1.5" stroke-miterlimit="10" stroke-linecap="round" stroke-linejoin="round"/>
</svg>
