<svg width="18" height="18" viewBox="0 0 18 18" fill="none" xmlns="http://www.w3.org/2000/svg">
<path d="M15.7498 4.48486C13.2523 4.23736 10.7398 4.10986 8.23476 4.10986C6.74976 4.10986 5.26476 4.18486 3.77976 4.33486L2.24976 4.48486" stroke="#201E27" stroke-width="1.5" stroke-linecap="round" stroke-linejoin="round"/>
<path d="M6.37476 3.7275L6.53976 2.745C6.65976 2.0325 6.74976 1.5 8.01726 1.5H9.98226C11.2498 1.5 11.3473 2.0625 11.4598 2.7525L11.6248 3.7275" stroke="#201E27" stroke-width="1.5" stroke-linecap="round" stroke-linejoin="round"/>
<path d="M14.1373 6.85498L13.6498 14.4075C13.5673 15.585 13.4998 16.5 11.4073 16.5H6.5923C4.4998 16.5 4.4323 15.585 4.3498 14.4075L3.8623 6.85498" stroke="#201E27" stroke-width="1.5" stroke-linecap="round" stroke-linejoin="round"/>
<path d="M7.74731 12.375H10.2448" stroke="#201E27" stroke-width="1.5" stroke-linecap="round" stroke-linejoin="round"/>
<path d="M7.12476 9.375H10.8748" stroke="#201E27" stroke-width="1.5" stroke-linecap="round" stroke-linejoin="round"/>
</svg>
