<svg width="28" height="29" viewBox="0 0 28 29" fill="none" xmlns="http://www.w3.org/2000/svg">
<path d="M17.3333 6.16699H10.6667C7.75 6.16699 6.5 7.83366 6.5 10.3337V18.667C6.5 21.167 7.75 22.8337 10.6667 22.8337H17.3333C20.25 22.8337 21.5 21.167 21.5 18.667V10.3337C21.5 7.83366 20.25 6.16699 17.3333 6.16699ZM10.6667 14.7087H14C14.3417 14.7087 14.625 14.992 14.625 15.3337C14.625 15.6753 14.3417 15.9587 14 15.9587H10.6667C10.325 15.9587 10.0417 15.6753 10.0417 15.3337C10.0417 14.992 10.325 14.7087 10.6667 14.7087ZM17.3333 19.292H10.6667C10.325 19.292 10.0417 19.0087 10.0417 18.667C10.0417 18.3253 10.325 18.042 10.6667 18.042H17.3333C17.675 18.042 17.9583 18.3253 17.9583 18.667C17.9583 19.0087 17.675 19.292 17.3333 19.292ZM19.4167 12.2087H17.75C16.4833 12.2087 15.4583 11.1837 15.4583 9.91699V8.25033C15.4583 7.90866 15.7417 7.62533 16.0833 7.62533C16.425 7.62533 16.7083 7.90866 16.7083 8.25033V9.91699C16.7083 10.492 17.175 10.9587 17.75 10.9587H19.4167C19.7583 10.9587 20.0417 11.242 20.0417 11.5837C20.0417 11.9253 19.7583 12.2087 19.4167 12.2087Z" fill="#005399"/>
</svg>
