<svg width="20" height="20" viewBox="0 0 20 20" fill="none" xmlns="http://www.w3.org/2000/svg">
<path d="M7.5 14.792C7.41667 14.792 7.34167 14.7753 7.25833 14.742C7.025 14.6503 6.875 14.417 6.875 14.167V9.16699C6.875 8.82533 7.15833 8.54199 7.5 8.54199C7.84167 8.54199 8.125 8.82533 8.125 9.16699V12.6587L8.725 12.0587C8.96667 11.817 9.36667 11.817 9.60833 12.0587C9.85 12.3003 9.85 12.7003 9.60833 12.942L7.94167 14.6087C7.825 14.7253 7.65833 14.792 7.5 14.792Z" fill="#141414"/>
<path d="M7.50052 14.7915C7.34219 14.7915 7.18385 14.7332 7.05885 14.6082L5.39219 12.9415C5.15052 12.6999 5.15052 12.2999 5.39219 12.0582C5.63385 11.8165 6.03385 11.8165 6.27552 12.0582L7.94219 13.7249C8.18385 13.9665 8.18385 14.3665 7.94219 14.6082C7.81719 14.7332 7.65885 14.7915 7.50052 14.7915Z" fill="#141414"/>
<path d="M12.4993 18.9587H7.49935C2.97435 18.9587 1.04102 17.0253 1.04102 12.5003V7.50033C1.04102 2.97533 2.97435 1.04199 7.49935 1.04199H11.666C12.0077 1.04199 12.291 1.32533 12.291 1.66699C12.291 2.00866 12.0077 2.29199 11.666 2.29199H7.49935C3.65768 2.29199 2.29102 3.65866 2.29102 7.50033V12.5003C2.29102 16.342 3.65768 17.7087 7.49935 17.7087H12.4993C16.341 17.7087 17.7077 16.342 17.7077 12.5003V8.33366C17.7077 7.99199 17.991 7.70866 18.3327 7.70866C18.6744 7.70866 18.9577 7.99199 18.9577 8.33366V12.5003C18.9577 17.0253 17.0243 18.9587 12.4993 18.9587Z" fill="#292D32"/>
<path d="M18.3327 8.95841H14.9993C12.1493 8.95841 11.041 7.85007 11.041 5.00007V1.66674C11.041 1.41674 11.191 1.18341 11.4243 1.09174C11.6577 0.991739 11.9243 1.05007 12.1077 1.22507L18.7743 7.89174C18.9493 8.06674 19.0077 8.34174 18.9077 8.57507C18.8077 8.8084 18.5827 8.95841 18.3327 8.95841ZM12.291 3.17507V5.00007C12.291 7.15007 12.8493 7.70841 14.9993 7.70841H16.8243L12.291 3.17507Z" fill="#292D32"/>
</svg>
