<svg width="18" height="18" viewBox="0 0 18 18" fill="none" xmlns="http://www.w3.org/2000/svg">
<path d="M8.24976 1.5H6.74976C2.99976 1.5 1.49976 3 1.49976 6.75V11.25C1.49976 15 2.99976 16.5 6.74976 16.5H11.2498C14.9998 16.5 16.4998 15 16.4998 11.25V9.75" stroke="#201E27" stroke-width="1.5" stroke-linecap="round" stroke-linejoin="round"/>
<path d="M12.0298 2.26495L6.11979 8.17495C5.89479 8.39995 5.66979 8.84245 5.62479 9.16495L5.30229 11.4224C5.18229 12.2399 5.75979 12.8099 6.57729 12.6974L8.83479 12.3749C9.14979 12.3299 9.59229 12.1049 9.82479 11.8799L15.7348 5.96995C16.7548 4.94995 17.2348 3.76495 15.7348 2.26495C14.2348 0.764945 13.0498 1.24495 12.0298 2.26495Z" stroke="#201E27" stroke-width="1.5" stroke-miterlimit="10" stroke-linecap="round" stroke-linejoin="round"/>
<path d="M11.1823 3.1123C11.6848 4.9048 13.0873 6.3073 14.8873 6.8173" stroke="#201E27" stroke-width="1.5" stroke-miterlimit="10" stroke-linecap="round" stroke-linejoin="round"/>
</svg>
