<svg width="24" height="24" viewBox="0 0 24 24" fill="none" xmlns="http://www.w3.org/2000/svg">
<rect width="24" height="24" rx="12" fill="#FFE6E6"/>
<path d="M18.0002 12.0008C18.0002 11.6327 17.7018 11.3342 17.3336 11.3342C16.9654 11.3342 16.6669 11.6327 16.6669 12.0008V13.5342L13.8402 10.2008C13.6296 9.95459 13.2723 9.89552 12.9936 10.0608L10.1469 11.8008L7.18023 8.24085C7.0278 8.05745 6.7891 7.96931 6.55406 8.00962C6.31902 8.04993 6.12334 8.21258 6.04073 8.43629C5.95812 8.66 6.00113 8.91078 6.15357 9.09418L9.4869 13.0942C9.69657 13.3463 10.0584 13.4085 10.3402 13.2408L13.1936 11.5275L15.8602 14.6675H14.0002C13.632 14.6675 13.3336 14.966 13.3336 15.3342C13.3336 15.7024 13.632 16.0008 14.0002 16.0008H17.3336C17.4156 15.9988 17.4967 15.9831 17.5736 15.9542L17.6669 15.9008C17.7017 15.8833 17.7351 15.8633 17.7669 15.8408C17.8034 15.8079 17.8349 15.7697 17.8602 15.7275C17.8826 15.698 17.9026 15.6668 17.9202 15.6342C17.9365 15.5981 17.9478 15.56 17.9536 15.5208C17.9806 15.4621 17.9964 15.3988 18.0002 15.3342V12.0008Z" fill="#FF0000"/>
</svg>
