<svg width="25" height="24" viewBox="0 0 25 24" fill="none" xmlns="http://www.w3.org/2000/svg">
<rect x="0.5" width="24" height="24" rx="12" fill="#FFF"/>
<path d="M18.5 8.66667C18.5063 8.62021 18.5063 8.57312 18.5 8.52667C18.4942 8.48753 18.483 8.44938 18.4667 8.41333C18.4491 8.38075 18.429 8.34955 18.4067 8.32C18.3813 8.27784 18.3499 8.23965 18.3133 8.20667L18.2333 8.16C18.1949 8.1313 18.1521 8.10881 18.1067 8.09333H17.9733C17.9327 8.054 17.8853 8.02237 17.8333 8H14.5C14.1318 8 13.8333 8.29848 13.8333 8.66667C13.8333 9.03486 14.1318 9.33333 14.5 9.33333H16.3867L13.72 12.4733L10.84 10.76C10.5582 10.5924 10.1964 10.6546 9.98668 10.9067L6.65335 14.9067C6.53998 15.0427 6.4854 15.2183 6.50166 15.3946C6.51792 15.571 6.60368 15.7336 6.74002 15.8467C6.85996 15.9461 7.01091 16.0003 7.16668 16C7.36497 16.0003 7.55311 15.9124 7.68002 15.76L10.6467 12.2L13.4933 13.9067C13.7721 14.072 14.1293 14.0129 14.34 13.7667L17.1667 10.4667V12C17.1667 12.3682 17.4652 12.6667 17.8333 12.6667C18.2015 12.6667 18.5 12.3682 18.5 12V8.66667Z" fill="#00ad23"/>
</svg>

