<svg width="28" height="28" viewBox="0 0 28 28" fill="none" xmlns="http://www.w3.org/2000/svg">
    <rect width="28" height="28" rx="14" fill="#F8F8FA"/>
    <g clip-path="url(#clip0_8358_15404)">
        <path d="M10.375 21.425C10.35 21.425 10.3167 21.4417 10.2917 21.4417C8.67499 20.6417 7.35832 19.3167 6.54999 17.7C6.54999 17.675 6.56665 17.6417 6.56665 17.6167C7.58332 17.9167 8.63332 18.1417 9.67499 18.3167C9.85832 19.3667 10.075 20.4084 10.375 21.425Z" fill="#141414"/>
        <path d="M21.45 17.7084C20.625 19.3667 19.25 20.7084 17.575 21.5167C17.8917 20.4584 18.1583 19.3917 18.3333 18.3167C19.3833 18.1417 20.4167 17.9167 21.4333 17.6167C21.425 17.65 21.45 17.6834 21.45 17.7084Z" fill="#141414"/>
        <path d="M21.5167 10.4251C20.4667 10.1084 19.4083 9.85007 18.3333 9.66673C18.1583 8.59173 17.9 7.52507 17.575 6.4834C19.3 7.3084 20.6917 8.70007 21.5167 10.4251Z" fill="#141414"/>
        <path d="M10.375 6.5748C10.075 7.59147 9.85834 8.6248 9.68334 9.6748C8.60834 9.84147 7.54167 10.1081 6.48334 10.4248C7.29167 8.7498 8.63334 7.3748 10.2917 6.5498C10.3167 6.5498 10.35 6.5748 10.375 6.5748Z" fill="#141414"/>
        <path d="M16.9083 9.4915C14.975 9.27484 13.025 9.27484 11.0917 9.4915C11.3 8.34984 11.5667 7.20817 11.9417 6.10817C11.9583 6.0415 11.95 5.9915 11.9583 5.92484C12.6167 5.7665 13.2917 5.6665 14 5.6665C14.7 5.6665 15.3833 5.7665 16.0333 5.92484C16.0417 5.9915 16.0417 6.0415 16.0583 6.10817C16.4333 7.2165 16.7 8.34984 16.9083 9.4915Z" fill="#141414"/>
        <path d="M9.49166 16.9085C8.34166 16.7001 7.20832 16.4335 6.10832 16.0585C6.04166 16.0418 5.99166 16.0501 5.92499 16.0418C5.76666 15.3835 5.66666 14.7085 5.66666 14.0001C5.66666 13.3001 5.76666 12.6168 5.92499 11.9668C5.99166 11.9585 6.04166 11.9585 6.10832 11.9418C7.21666 11.5751 8.34166 11.3001 9.49166 11.0918C9.28332 13.0251 9.28332 14.9751 9.49166 16.9085Z" fill="#292D32"/>
        <path d="M22.3333 14.0001C22.3333 14.7085 22.2333 15.3835 22.075 16.0418C22.0083 16.0501 21.9583 16.0418 21.8917 16.0585C20.7833 16.4251 19.65 16.7001 18.5083 16.9085C18.725 14.9751 18.725 13.0251 18.5083 11.0918C19.65 11.3001 20.7917 11.5668 21.8917 11.9418C21.9583 11.9585 22.0083 11.9668 22.075 11.9668C22.2333 12.6251 22.3333 13.3001 22.3333 14.0001Z" fill="#292D32"/>
        <path d="M16.9083 18.5083C16.7 19.6583 16.4333 20.7916 16.0583 21.8916C16.0417 21.9583 16.0417 22.0083 16.0333 22.075C15.3833 22.2333 14.7 22.3333 14 22.3333C13.2917 22.3333 12.6167 22.2333 11.9583 22.075C11.95 22.0083 11.9583 21.9583 11.9417 21.8916C11.575 20.7833 11.3 19.6583 11.0917 18.5083C12.0583 18.6166 13.025 18.6916 14 18.6916C14.975 18.6916 15.95 18.6166 16.9083 18.5083Z" fill="#292D32"/>
        <path d="M17.1361 17.1359C15.0519 17.3989 12.9481 17.3989 10.8639 17.1359C10.6009 15.0517 10.6009 12.948 10.8639 10.8637C12.9481 10.6008 15.0519 10.6008 17.1361 10.8637C17.3991 12.948 17.3991 15.0517 17.1361 17.1359Z" fill="#292D32"/>
    </g>
    <defs>
        <clipPath id="clip0_8358_15404">
            <rect width="20" height="20" fill="white" transform="translate(4 4)"/>
        </clipPath>
    </defs>
</svg>
