<svg width="24" height="24" viewBox="0 0 24 24" fill="none" xmlns="http://www.w3.org/2000/svg">
    <g clip-path="url(#clip0_11113_1182)">
        <path d="M1.09092 8.72727C0.436377 8.72727 0 8.29089 0 7.63635V3.27271C0 1.41817 1.41817 0 3.27271 0H7.63635C8.29089 0 8.72727 0.436377 8.72727 1.09092C8.72727 1.74546 8.29089 2.18184 7.63635 2.18184H3.27271C2.61817 2.18184 2.18179 2.61822 2.18179 3.27276V7.63639C2.18184 8.29089 1.74546 8.72727 1.09092 8.72727Z" fill="black"/>
        <path fill-rule="evenodd" clip-rule="evenodd" d="M1.98179 7.63639V3.27276C1.98179 2.90004 2.10691 2.57389 2.34038 2.34042C2.57385 2.10696 2.89999 1.98184 3.27271 1.98184H7.63635C7.91817 1.98184 8.13748 1.88877 8.28584 1.74041C8.43419 1.59205 8.52726 1.37274 8.52726 1.09092C8.52726 0.809099 8.43419 0.589785 8.28584 0.441427C8.13748 0.29307 7.91817 0.2 7.63635 0.2H3.27271C1.52863 0.2 0.2 1.52863 0.2 3.27271V7.63635C0.2 7.91817 0.29307 8.13748 0.441427 8.28584C0.589785 8.43419 0.809099 8.52726 1.09092 8.52726C1.37274 8.52726 1.59205 8.43419 1.74041 8.28584C1.88876 8.13749 1.98181 7.91818 1.98179 7.63639ZM0 7.63635C0 8.29089 0.436377 8.72727 1.09092 8.72727C1.74546 8.72727 2.18184 8.29089 2.18179 7.63639V3.27276C2.18179 2.61822 2.61817 2.18184 3.27271 2.18184H7.63635C8.29089 2.18184 8.72727 1.74546 8.72727 1.09092C8.72727 0.436377 8.29089 0 7.63635 0H3.27271C1.41817 0 0 1.41817 0 3.27271V7.63635Z" fill="white"/>
        <path d="M22.9091 8.72727C22.2546 8.72727 21.8182 8.29089 21.8182 7.63635V3.27271C21.8182 2.61817 21.3818 2.18179 20.7273 2.18179H16.3636C15.7091 2.18179 15.2727 1.74542 15.2727 1.09087C15.2727 0.436332 15.7091 0 16.3636 0H20.7273C22.5818 0 24 1.41817 24 3.27271V7.63635C24 8.29089 23.5636 8.72727 22.9091 8.72727Z" fill="black"/>
        <path fill-rule="evenodd" clip-rule="evenodd" d="M22.2596 8.28584C22.408 8.43419 22.6273 8.52726 22.9091 8.52726C23.1909 8.52726 23.4102 8.43419 23.5586 8.28584C23.7069 8.13749 23.8 7.91818 23.8 7.63635V3.27271C23.8 1.52863 22.4713 0.2 20.7273 0.2H16.3636C16.0818 0.2 15.8625 0.293063 15.7141 0.441409C15.5658 0.589755 15.4727 0.809056 15.4727 1.09087C15.4727 1.37269 15.5658 1.59201 15.7141 1.74037C15.8625 1.88872 16.0818 1.98179 16.3636 1.98179H20.7273C21.1 1.98179 21.4261 2.10691 21.6596 2.34038C21.8931 2.57385 22.0182 2.89999 22.0182 3.27271V7.63635C22.0182 7.91817 22.1112 8.13748 22.2596 8.28584ZM21.8182 7.63635C21.8182 8.29089 22.2546 8.72727 22.9091 8.72727C23.5636 8.72727 24 8.29089 24 7.63635V3.27271C24 1.41817 22.5818 0 20.7273 0H16.3636C15.7091 0 15.2727 0.436332 15.2727 1.09087C15.2727 1.74542 15.7091 2.18179 16.3636 2.18179H20.7273C21.3818 2.18179 21.8182 2.61817 21.8182 3.27271V7.63635Z" fill="white"/>
        <path d="M7.63635 24.0007H3.27271C1.41817 24.0007 0 22.5825 0 20.728V16.3644C0 15.7098 0.436377 15.2734 1.09092 15.2734C1.74546 15.2734 2.18184 15.7098 2.18184 16.3644V20.728C2.18184 21.3825 2.61821 21.8189 3.27276 21.8189H7.63639C8.29093 21.8189 8.72731 22.2553 8.72731 22.9098C8.72726 23.5643 8.29089 24.0007 7.63635 24.0007Z" fill="black"/>
        <path fill-rule="evenodd" clip-rule="evenodd" d="M3.27271 23.8007H7.63635C7.91816 23.8007 8.13748 23.7076 8.28585 23.5593C8.43421 23.4109 8.52729 23.1916 8.52731 22.9098C8.52731 22.628 8.43424 22.4087 8.28588 22.2603C8.13752 22.112 7.91821 22.0189 7.63639 22.0189H3.27276C2.90003 22.0189 2.57389 21.8938 2.34042 21.6603C2.10696 21.4269 1.98184 21.1007 1.98184 20.728V16.3644C1.98184 16.0825 1.88877 15.8632 1.74041 15.7149C1.59205 15.5665 1.37274 15.4734 1.09092 15.4734C0.809099 15.4734 0.589785 15.5665 0.441428 15.7149C0.29307 15.8632 0.2 16.0825 0.2 16.3644V20.728C0.2 22.4721 1.52863 23.8007 3.27271 23.8007ZM3.27271 24.0007H7.63635C8.29089 24.0007 8.72726 23.5643 8.72731 22.9098C8.72731 22.2553 8.29093 21.8189 7.63639 21.8189H3.27276C2.61821 21.8189 2.18184 21.3825 2.18184 20.728V16.3644C2.18184 15.7098 1.74546 15.2734 1.09092 15.2734C0.436377 15.2734 0 15.7098 0 16.3644V20.728C0 22.5825 1.41817 24.0007 3.27271 24.0007Z" fill="white"/>
        <path d="M20.7273 24.0007H16.3636C15.7091 24.0007 15.2727 23.5644 15.2727 22.9098C15.2727 22.2553 15.7091 21.8189 16.3636 21.8189H20.7273C21.3818 21.8189 21.8182 21.3825 21.8182 20.728V16.3644C21.8182 15.7098 22.2546 15.2734 22.9091 15.2734C23.5636 15.2734 24 15.7098 24 16.3644V20.728C24 22.5826 22.5818 24.0007 20.7273 24.0007Z" fill="black"/>
        <path fill-rule="evenodd" clip-rule="evenodd" d="M16.3636 23.8007H20.7273C22.4713 23.8007 23.8 22.4721 23.8 20.728V16.3644C23.8 16.0825 23.7069 15.8632 23.5586 15.7149C23.4102 15.5665 23.1909 15.4734 22.9091 15.4734C22.6273 15.4734 22.408 15.5665 22.2596 15.7149C22.1112 15.8632 22.0182 16.0825 22.0182 16.3644V20.728C22.0182 21.1007 21.8931 21.4269 21.6596 21.6603C21.4261 21.8938 21.1 22.0189 20.7273 22.0189H16.3636C16.0818 22.0189 15.8625 22.112 15.7141 22.2603C15.5658 22.4087 15.4727 22.628 15.4727 22.9098C15.4727 23.1916 15.5658 23.411 15.7141 23.5593C15.8625 23.7077 16.0818 23.8007 16.3636 23.8007ZM16.3636 24.0007H20.7273C22.5818 24.0007 24 22.5826 24 20.728V16.3644C24 15.7098 23.5636 15.2734 22.9091 15.2734C22.2546 15.2734 21.8182 15.7098 21.8182 16.3644V20.728C21.8182 21.3825 21.3818 21.8189 20.7273 21.8189H16.3636C15.7091 21.8189 15.2727 22.2553 15.2727 22.9098C15.2727 23.5644 15.7091 24.0007 16.3636 24.0007Z" fill="white"/>
        <path d="M9.8182 10.9088H5.45457C4.80002 10.9088 4.36365 10.4724 4.36365 9.81783V5.4542C4.36365 4.79966 4.80002 4.36328 5.45457 4.36328H9.8182C10.4727 4.36328 10.9091 4.79966 10.9091 5.4542V9.81783C10.9091 10.4724 10.4727 10.9088 9.8182 10.9088ZM6.54549 8.72691H8.72732V6.54508H6.54549V8.72691Z" fill="black"/>
        <path fill-rule="evenodd" clip-rule="evenodd" d="M6.34549 8.92691V6.34508H8.92732V8.92691H6.34549ZM5.45457 10.7088H9.8182C10.1 10.7088 10.3193 10.6157 10.4677 10.4673C10.616 10.319 10.7091 10.0997 10.7091 9.81783V5.4542C10.7091 5.17238 10.616 4.95307 10.4677 4.80471C10.3193 4.65635 10.1 4.56328 9.8182 4.56328H5.45457C5.17275 4.56328 4.95343 4.65635 4.80507 4.80471C4.65672 4.95307 4.56365 5.17238 4.56365 5.4542V9.81783C4.56365 10.0997 4.65672 10.319 4.80507 10.4673C4.95343 10.6157 5.17275 10.7088 5.45457 10.7088ZM8.72732 8.72691H6.54549V6.54508H8.72732V8.72691ZM5.45457 10.9088H9.8182C10.4727 10.9088 10.9091 10.4724 10.9091 9.81783V5.4542C10.9091 4.79966 10.4727 4.36328 9.8182 4.36328H5.45457C4.80002 4.36328 4.36365 4.79966 4.36365 5.4542V9.81783C4.36365 10.4724 4.80002 10.9088 5.45457 10.9088Z" fill="white"/>
        <path d="M9.8182 19.6373H5.45457C4.80002 19.6373 4.36365 19.2009 4.36365 18.5463V14.1827C4.36365 13.5282 4.80002 13.0918 5.45457 13.0918H9.8182C10.4727 13.0918 10.9091 13.5282 10.9091 14.1827V18.5463C10.9091 19.2009 10.4727 19.6373 9.8182 19.6373ZM6.54549 17.4554H8.72732V15.2736H6.54549V17.4554Z" fill="black"/>
        <path fill-rule="evenodd" clip-rule="evenodd" d="M6.34549 17.6554V15.0736H8.92732V17.6554H6.34549ZM5.45457 19.4373H9.8182C10.1 19.4373 10.3193 19.3442 10.4677 19.1958C10.616 19.0475 10.7091 18.8282 10.7091 18.5463V14.1827C10.7091 13.9009 10.616 13.6816 10.4677 13.5332C10.3193 13.3849 10.1 13.2918 9.8182 13.2918H5.45457C5.17275 13.2918 4.95343 13.3849 4.80507 13.5332C4.65672 13.6816 4.56365 13.9009 4.56365 14.1827V18.5463C4.56365 18.8282 4.65672 19.0475 4.80507 19.1958C4.95343 19.3442 5.17275 19.4373 5.45457 19.4373ZM8.72732 17.4554H6.54549V15.2736H8.72732V17.4554ZM5.45457 19.6373H9.8182C10.4727 19.6373 10.9091 19.2009 10.9091 18.5463V14.1827C10.9091 13.5282 10.4727 13.0918 9.8182 13.0918H5.45457C4.80002 13.0918 4.36365 13.5282 4.36365 14.1827V18.5463C4.36365 19.2009 4.80002 19.6373 5.45457 19.6373Z" fill="white"/>
        <path d="M18.5454 10.9088H14.1818C13.5273 10.9088 13.0909 10.4724 13.0909 9.81783V5.4542C13.0909 4.79966 13.5273 4.36328 14.1818 4.36328H18.5454C19.2 4.36328 19.6364 4.79966 19.6364 5.4542V9.81783C19.6364 10.4724 19.2 10.9088 18.5454 10.9088ZM15.2727 8.72691H17.4546V6.54508H15.2727V8.72691Z" fill="black"/>
        <path fill-rule="evenodd" clip-rule="evenodd" d="M15.0727 8.92691V6.34508H17.6546V8.92691H15.0727ZM14.1818 10.7088H18.5454C18.8273 10.7088 19.0466 10.6157 19.1949 10.4673C19.3433 10.319 19.4364 10.0997 19.4364 9.81783V5.4542C19.4364 5.17238 19.3433 4.95307 19.1949 4.80471C19.0466 4.65635 18.8273 4.56328 18.5454 4.56328H14.1818C13.9 4.56328 13.6807 4.65635 13.5323 4.80471C13.384 4.95307 13.2909 5.17238 13.2909 5.4542V9.81783C13.2909 10.0997 13.384 10.319 13.5323 10.4673C13.6807 10.6157 13.9 10.7088 14.1818 10.7088ZM17.4546 8.72691H15.2727V6.54508H17.4546V8.72691ZM14.1818 10.9088H18.5454C19.2 10.9088 19.6364 10.4724 19.6364 9.81783V5.4542C19.6364 4.79966 19.2 4.36328 18.5454 4.36328H14.1818C13.5273 4.36328 13.0909 4.79966 13.0909 5.4542V9.81783C13.0909 10.4724 13.5273 10.9088 14.1818 10.9088Z" fill="white"/>
        <path d="M14.1818 16.3646C13.5273 16.3646 13.0909 15.9282 13.0909 15.2736V14.1827C13.0909 13.5282 13.5273 13.0918 14.1818 13.0918C14.8363 13.0918 15.2727 13.5282 15.2727 14.1827V15.2736C15.2727 15.9282 14.8363 16.3646 14.1818 16.3646Z" fill="black"/>
        <path fill-rule="evenodd" clip-rule="evenodd" d="M13.5323 15.9231C13.6807 16.0715 13.9 16.1646 14.1818 16.1646C14.4636 16.1646 14.6829 16.0715 14.8313 15.9231C14.9796 15.7748 15.0727 15.5555 15.0727 15.2736V14.1827C15.0727 13.9009 14.9796 13.6816 14.8313 13.5332C14.6829 13.3849 14.4636 13.2918 14.1818 13.2918C13.9 13.2918 13.6807 13.3849 13.5323 13.5332C13.384 13.6816 13.2909 13.9009 13.2909 14.1827V15.2736C13.2909 15.5555 13.384 15.7748 13.5323 15.9231ZM13.0909 15.2736C13.0909 15.9282 13.5273 16.3646 14.1818 16.3646C14.8363 16.3646 15.2727 15.9282 15.2727 15.2736V14.1827C15.2727 13.5282 14.8363 13.0918 14.1818 13.0918C13.5273 13.0918 13.0909 13.5282 13.0909 14.1827V15.2736Z" fill="white"/>
        <path d="M18.5454 15.2736H17.4545C16.8 15.2736 16.3636 14.8373 16.3636 14.1827C16.3636 13.5282 16.8 13.0918 17.4545 13.0918H18.5454C19.2 13.0918 19.6363 13.5282 19.6363 14.1827C19.6363 14.8373 19.2 15.2736 18.5454 15.2736Z" fill="black"/>
        <path fill-rule="evenodd" clip-rule="evenodd" d="M17.4545 15.0736H18.5454C18.8272 15.0736 19.0466 14.9806 19.1949 14.8322C19.3433 14.6839 19.4363 14.4645 19.4363 14.1827C19.4363 13.9009 19.3433 13.6816 19.1949 13.5332C19.0466 13.3849 18.8272 13.2918 18.5454 13.2918H17.4545C17.1727 13.2918 16.9534 13.3849 16.805 13.5332C16.6567 13.6816 16.5636 13.9009 16.5636 14.1827C16.5636 14.4645 16.6567 14.6839 16.805 14.8322C16.9534 14.9806 17.1727 15.0736 17.4545 15.0736ZM17.4545 15.2736H18.5454C19.2 15.2736 19.6363 14.8373 19.6363 14.1827C19.6363 13.5282 19.2 13.0918 18.5454 13.0918H17.4545C16.8 13.0918 16.3636 13.5282 16.3636 14.1827C16.3636 14.8373 16.8 15.2736 17.4545 15.2736Z" fill="white"/>
        <path d="M18.5455 19.6369H15.2727C14.6182 19.6369 14.1818 19.2005 14.1818 18.546C14.1818 17.8915 14.6182 17.4551 15.2727 17.4551H18.5455C19.2 17.4551 19.6364 17.8915 19.6364 18.546C19.6364 19.2005 19.2 19.6369 18.5455 19.6369Z" fill="black"/>
        <path fill-rule="evenodd" clip-rule="evenodd" d="M15.2727 19.4369H18.5455C18.8273 19.4369 19.0466 19.3438 19.1949 19.1955C19.3433 19.0471 19.4364 18.8278 19.4364 18.546C19.4364 18.2642 19.3433 18.0449 19.1949 17.8965C19.0466 17.7481 18.8273 17.6551 18.5455 17.6551H15.2727C14.9909 17.6551 14.7716 17.7481 14.6233 17.8965C14.4749 18.0449 14.3818 18.2642 14.3818 18.546C14.3818 18.8278 14.4749 19.0471 14.6233 19.1955C14.7716 19.3438 14.9909 19.4369 15.2727 19.4369ZM15.2727 19.6369H18.5455C19.2 19.6369 19.6364 19.2005 19.6364 18.546C19.6364 17.8915 19.2 17.4551 18.5455 17.4551H15.2727C14.6182 17.4551 14.1818 17.8915 14.1818 18.546C14.1818 19.2005 14.6182 19.6369 15.2727 19.6369Z" fill="white"/>
    </g>
    <defs>
        <clipPath id="clip0_11113_1182">
            <rect width="24" height="24" fill="white"/>
        </clipPath>
    </defs>
</svg>
