<svg width="20" height="20" viewBox="0 0 20 20" fill="none" xmlns="http://www.w3.org/2000/svg">
    <path d="M9.99992 18.9669C9.09158 18.9669 8.19158 18.7002 7.48325 18.1752L3.89992 15.5002C2.94992 14.7919 2.20825 13.3085 2.20825 12.1335V5.93353C2.20825 4.6502 3.14992 3.28353 4.35825 2.83353L8.51658 1.2752C9.34158 0.966862 10.6416 0.966862 11.4666 1.2752L15.6249 2.83353C16.8333 3.28353 17.7749 4.6502 17.7749 5.93353V12.1252C17.7749 13.3085 17.0333 14.7835 16.0833 15.4919L12.4999 18.1669C11.8083 18.7002 10.9083 18.9669 9.99992 18.9669ZM8.95825 2.4502L4.79992 4.00853C4.09159 4.2752 3.46658 5.1752 3.46658 5.94186V12.1335C3.46658 12.9252 4.02492 14.0335 4.64992 14.5002L8.23325 17.1752C9.19158 17.8919 10.8083 17.8919 11.7749 17.1752L15.3583 14.5002C15.9916 14.0252 16.5416 12.9252 16.5416 12.1335V5.93353C16.5416 5.1752 15.9166 4.2752 15.2083 4.0002L11.0499 2.44186C10.4833 2.24186 9.51658 2.24186 8.95825 2.4502Z" fill="#141414"/>
    <path d="M11.7918 11.8247C11.6334 11.8247 11.4751 11.7664 11.3501 11.6414L7.80845 8.09974C7.56678 7.85807 7.56678 7.45807 7.80845 7.21641C8.05011 6.97474 8.45011 6.97474 8.69178 7.21641L12.2334 10.7581C12.4751 10.9997 12.4751 11.3997 12.2334 11.6414C12.1084 11.7581 11.9501 11.8247 11.7918 11.8247Z" fill="#141414"/>
    <path d="M8.20837 11.8579C8.05003 11.8579 7.8917 11.7996 7.7667 11.6746C7.52503 11.4329 7.52503 11.0329 7.7667 10.7913L11.3084 7.24961C11.55 7.00794 11.95 7.00794 12.1917 7.24961C12.4334 7.49128 12.4334 7.89128 12.1917 8.13294L8.65003 11.6746C8.53337 11.7996 8.3667 11.8579 8.20837 11.8579Z" fill="#292D32"/>
</svg>
