<svg width="20" height="20" viewBox="0 0 20 20" fill="none" xmlns="http://www.w3.org/2000/svg">
<path d="M7.30003 1.44193H7.40836C11.1084 1.44193 12.8917 2.90026 13.2 6.16693C13.2334 6.50859 12.9834 6.81693 12.6334 6.85026C12.3 6.88359 11.9834 6.62526 11.95 6.28359C11.7084 3.66693 10.475 2.69193 7.40003 2.69193H7.2917C3.90003 2.69193 2.70003 3.89193 2.70003 7.28359L2.70003 12.7169C2.70003 16.1086 3.90003 17.3086 7.2917 17.3086H7.40003C10.4917 17.3086 11.725 16.3169 11.95 13.6503C11.9917 13.3086 12.2834 13.0503 12.6334 13.0836C12.9834 13.1086 13.2334 13.4169 13.2084 13.7586C12.925 17.0753 11.1334 18.5586 7.40836 18.5586H7.30003C3.20836 18.5586 1.45836 16.8086 1.45836 12.7169L1.45836 7.28359C1.45836 3.19193 3.20836 1.44193 7.30003 1.44193Z" fill="#292D32"/>
<path d="M7.49994 9.375L16.9833 9.375C17.3249 9.375 17.6083 9.65833 17.6083 10C17.6083 10.3417 17.3249 10.625 16.9833 10.625L7.49994 10.625C7.15828 10.625 6.87494 10.3417 6.87494 10C6.87494 9.65833 7.15828 9.375 7.49994 9.375Z" fill="#292D32"/>
<path d="M15.125 6.58379C15.2833 6.58379 15.4416 6.64212 15.5666 6.76712L18.3583 9.55879C18.6 9.80046 18.6 10.2005 18.3583 10.4421L15.5666 13.2338C15.325 13.4755 14.925 13.4755 14.6833 13.2338C14.4416 12.9921 14.4416 12.5921 14.6833 12.3505L17.0333 10.0005L14.6833 7.65046C14.4416 7.40879 14.4416 7.00879 14.6833 6.76712C14.8 6.64212 14.9666 6.58379 15.125 6.58379Z" fill="#292D32"/>
</svg>
