<svg width="20" height="20" viewBox="0 0 20 20" fill="none" xmlns="http://www.w3.org/2000/svg">
<path d="M13.491 1.66699H6.50768C3.47435 1.66699 1.66602 3.47533 1.66602 6.50866V13.4837C1.66602 16.5253 3.47435 18.3337 6.50768 18.3337H13.4827C16.516 18.3337 18.3243 16.5253 18.3243 13.492V6.50866C18.3327 3.47533 16.5243 1.66699 13.491 1.66699ZM12.3243 10.442L9.38268 13.3837C9.25768 13.5087 9.09935 13.567 8.94102 13.567C8.78268 13.567 8.62435 13.5087 8.49935 13.3837C8.25768 13.142 8.25768 12.742 8.49935 12.5003C9.88006 11.1196 9.88006 8.88104 8.49935 7.50033C8.25768 7.25866 8.25768 6.85866 8.49935 6.61699C8.74102 6.37533 9.14102 6.37533 9.38268 6.61699L12.3243 9.55866C12.5743 9.80033 12.5743 10.2003 12.3243 10.442Z" fill="#005399"/>
</svg>
