<svg width="20" height="21" viewBox="0 0 20 21" fill="none" xmlns="http://www.w3.org/2000/svg">
<path d="M1.82546 0.380859L2.7178 1.27371C2.89249 1.44961 3.01745 1.66866 3.07996 1.90855C3.14247 2.14845 3.14031 2.40062 3.07369 2.63941C3.00707 2.87819 2.87837 3.09506 2.7007 3.26795C2.52302 3.44083 2.30271 3.56355 2.06219 3.62361L2.8479 4.40932C3.18445 4.23308 3.47485 3.98018 3.69567 3.67104C3.91648 3.3619 4.06153 3.00518 4.11909 2.62966C4.17666 2.25414 4.14514 1.87035 4.02707 1.50926C3.909 1.14817 3.70769 0.819893 3.4394 0.550926L3.26924 0.380859H1.82546ZM1.30034 0.822608C0.963606 0.997894 0.672923 1.25007 0.45186 1.55868C0.230797 1.8673 0.0855761 2.22367 0.0279732 2.5989C-0.0296296 2.97412 0.00200701 3.35764 0.120318 3.71836C0.238628 4.07907 0.440283 4.40683 0.708929 4.67505L4.4504 8.41397C4.49156 8.02521 4.59958 7.64648 4.7697 7.29451L1.4304 3.95226C1.16871 3.68985 1.02198 3.33424 1.02246 2.96365C1.02293 2.59306 1.17059 2.23783 1.43295 1.97609C1.60887 1.79188 1.83667 1.66554 2.08609 1.61384L1.30034 0.822608ZM4.80669 1.91869C4.81749 2.01678 4.8237 2.11597 4.8254 2.21631C4.83109 2.56013 4.77966 2.90251 4.67319 3.22948L7.76926 6.32555C7.96143 6.52006 8.09257 6.76647 8.14658 7.03451C8.20059 7.30255 8.1751 7.58053 8.07324 7.83428C7.97139 8.08802 7.79762 8.30648 7.57328 8.4628C7.34894 8.61911 7.08382 8.70647 6.8105 8.71414C6.80056 8.86089 6.82222 9.00806 6.874 9.14573C6.92578 9.2834 7.00648 9.40836 7.11067 9.51218L7.28074 9.68224C7.707 9.59149 8.10089 9.38746 8.42095 9.09166C8.741 8.79585 8.97536 8.41922 9.09935 8.00141C9.22334 7.58361 9.23238 7.1401 9.1255 6.7176C9.01862 6.29509 8.79978 5.90923 8.49204 5.60064L4.80669 1.91869ZM10.6166 2.97702L10.5774 5.05447L11.5977 5.07373L11.6368 2.99632L10.6166 2.97702ZM14.1028 3.46566L12.9267 5.38631L13.797 5.91917L14.973 3.99852L14.1028 3.46566ZM16.6546 5.7568L14.7537 6.63877L15.1831 7.56444L17.0841 6.68248L16.6546 5.7568ZM6.76374 6.28431C6.51388 6.38951 6.28126 6.53169 6.07369 6.70607C6.01383 6.75606 5.95624 6.80869 5.90107 6.86381C5.42471 7.34138 5.14242 7.97867 5.1088 8.65236C5.07519 9.32606 5.29264 9.98828 5.7191 10.5109C5.77793 10.583 5.84037 10.6521 5.90617 10.718L9.82409 14.6359C9.99761 14.8094 10.1937 14.9589 10.407 15.0802C10.1758 14.5846 10.0791 14.0369 10.1268 13.4922L6.62896 9.99432C6.58775 9.95378 6.54858 9.91121 6.51161 9.86677C6.47541 9.82247 6.44149 9.77635 6.41 9.72859C6.19262 9.4017 6.09502 9.00967 6.13377 8.61901C6.17252 8.22836 6.34522 7.86314 6.62258 7.58532C6.65659 7.55131 6.69188 7.51942 6.72802 7.48923C6.94181 7.30886 7.19679 7.18399 7.47036 7.12571C7.43796 7.00514 7.37448 6.89519 7.28627 6.80684L6.76374 6.28431ZM9.79688 6.61509C9.8802 6.97747 9.8982 7.35182 9.85003 7.72052L10.5894 7.99135C10.6531 8.01892 10.7217 8.0332 10.7912 8.03332C10.8606 8.03343 10.9293 8.01939 10.9931 7.99204C11.0568 7.96469 11.1144 7.92462 11.1622 7.87426C11.2099 7.82391 11.2469 7.76434 11.2709 7.6992C11.2948 7.63406 11.3052 7.56471 11.3015 7.49541C11.2977 7.4261 11.2798 7.3583 11.2489 7.29614C11.2181 7.23397 11.1748 7.17877 11.1219 7.13389C11.0689 7.08902 11.0074 7.05542 10.941 7.03515V7.03643L9.79688 6.61509ZM15.6519 8.82749L15.6209 9.84738L17.5613 9.90635L17.5923 8.88646L15.6519 8.82749ZM13.052 9.2888C12.97 9.28851 12.8892 9.30801 12.8163 9.34563C12.7434 9.38324 12.6807 9.43788 12.6334 9.5049C12.5861 9.57191 12.5557 9.64934 12.5447 9.73061C12.5337 9.81189 12.5425 9.89462 12.5702 9.97178L13.3513 12.1197C13.4613 12.4253 13.482 12.7558 13.4109 13.0727C13.3398 13.3895 13.1799 13.6796 12.9499 13.9088L12.9461 13.9127C12.8494 14.0093 12.7415 14.0941 12.6247 14.1652C12.6487 14.2003 12.6759 14.2332 12.7059 14.2634L13.3496 14.9071C13.4624 14.8243 13.5687 14.7331 13.6676 14.6342L13.6714 14.6303C14.0384 14.2633 14.2933 13.7994 14.4062 13.2928C14.5192 12.7862 14.4855 12.258 14.3092 11.7698L13.526 9.61975C13.5029 9.5559 13.4672 9.49735 13.421 9.44755C13.3369 9.35944 13.2241 9.30413 13.103 9.29152C13.0861 9.28976 13.0691 9.28885 13.052 9.2888ZM12.3955 11.4884C12.0134 11.6279 11.6726 11.8614 11.4044 12.1672C11.1363 12.4731 10.9494 12.8416 10.8611 13.2387C10.7728 13.6357 10.7859 14.0487 10.8991 14.4394C11.0123 14.8301 11.2221 15.186 11.509 15.4743L11.6914 15.6567L15.1353 19.1006C15.0913 18.6609 15.1368 18.2169 15.2688 17.7953V17.7932L13.0456 15.57L12.2284 14.7528C12.0653 14.5888 11.9453 14.387 11.8791 14.1654C11.8128 13.9438 11.8024 13.7093 11.8487 13.4827C11.8949 13.2561 11.9965 13.0444 12.1444 12.8666C12.2922 12.6887 12.4818 12.5502 12.6961 12.4633C12.6961 12.459 12.6935 12.4543 12.6918 12.4501L12.7025 12.4607C12.7305 12.4497 12.759 12.4395 12.7875 12.4301C12.7879 12.427 12.7879 12.4239 12.7875 12.4207C12.7697 12.4267 12.7514 12.4322 12.7335 12.4386C12.7293 12.4131 12.7203 12.3829 12.7106 12.3548L12.3955 11.4884ZM15.1221 12.2324L15.1195 12.2349C15.1414 12.3951 15.1518 12.5567 15.1506 12.7184C15.148 12.8647 15.1373 13.0107 15.1187 13.1559C15.0996 13.3012 15.0712 13.4452 15.0337 13.587L17.2569 15.8102L18.5711 17.1244C18.746 17.3003 18.8711 17.5194 18.9338 17.7594C18.9964 17.9994 18.9943 18.2517 18.9277 18.4906C18.861 18.7296 18.7322 18.9465 18.5544 19.1195C18.3766 19.2924 18.1561 19.4151 17.9154 19.4751L18.7012 20.2608C19.0376 20.0846 19.3279 19.8317 19.5487 19.5226C19.7695 19.2135 19.9145 18.8568 19.972 18.4813C20.0296 18.1059 19.9981 17.7222 19.88 17.3611C19.762 17.0001 19.5608 16.6718 19.2926 16.4029L18.566 15.6763L15.1221 12.2324ZM17.0366 16.5521C16.8188 16.6647 16.6201 16.8109 16.4478 16.9853C15.9942 17.4397 15.7393 18.0552 15.7388 18.6972C15.7384 19.3391 15.9924 19.9551 16.4452 20.4101L16.6536 20.6188H18.0955L17.1655 19.6886C16.9906 19.5126 16.8654 19.2934 16.8029 19.0533C16.7403 18.8132 16.7425 18.5608 16.8093 18.3219C16.8761 18.0829 17.005 17.866 17.183 17.6931C17.3609 17.5202 17.5816 17.3976 17.8223 17.3378L17.0366 16.5521Z" fill="#45474F"/>
</svg>
