<svg width="579" height="558" viewBox="0 0 579 558" fill="none" xmlns="http://www.w3.org/2000/svg">
    <path d="M56.5898 219.91L276.5 -4.89354e-05L496.41 219.91L276.5 439.82L56.5898 219.91Z" fill="#EB9722"/>
    <path d="M335.574 538.82H325.814V507.46H318.214V499.3H325.814V486.98H335.574V499.3H343.254V507.46H335.574V538.82Z" fill="#848585"/>
    <path d="M275.83 518.98C275.83 506.74 283.91 498.1 295.59 498.1C306.39 498.1 313.75 504.1 314.79 513.62H305.03C303.91 509.14 300.63 506.82 295.99 506.82C289.75 506.82 285.59 511.54 285.59 518.98C285.59 526.42 289.43 531.06 295.67 531.06C300.55 531.06 303.99 528.66 305.03 524.34H314.87C313.67 533.54 305.99 539.86 295.67 539.86C283.67 539.86 275.83 531.54 275.83 518.98Z" fill="#848585"/>
    <path d="M251.298 539.86C239.538 539.86 231.298 531.3 231.298 519.06C231.298 506.66 239.378 498.1 250.978 498.1C262.818 498.1 270.338 506.02 270.338 518.34V521.3L240.578 521.38C241.298 528.34 244.978 531.86 251.458 531.86C256.818 531.86 260.338 529.78 261.458 526.02H270.498C268.818 534.66 261.618 539.86 251.298 539.86ZM251.058 506.1C245.298 506.1 241.778 509.22 240.818 515.14H260.658C260.658 509.7 256.898 506.1 251.058 506.1Z" fill="#848585"/>
    <path d="M196.269 538.82H186.509V499.3H195.549L196.349 504.42C198.829 500.42 203.629 498.1 208.989 498.1C218.909 498.1 224.029 504.26 224.029 514.5V538.82H214.269V516.82C214.269 510.18 210.989 506.98 205.949 506.98C199.949 506.98 196.269 511.14 196.269 517.54V538.82Z" fill="#848585"/>
    <path d="M149.159 538.82H139.399V499.3H148.439L149.239 504.42C151.719 500.42 156.519 498.1 161.879 498.1C171.799 498.1 176.919 504.26 176.919 514.5V538.82H167.159V516.82C167.159 510.18 163.879 506.98 158.839 506.98C152.839 506.98 149.159 511.14 149.159 517.54V538.82Z" fill="#848585"/>
    <path d="M89.4233 518.98C89.4233 506.66 98.3033 498.18 110.543 498.18C122.783 498.18 131.663 506.66 131.663 518.98C131.663 531.3 122.783 539.78 110.543 539.78C98.3033 539.78 89.4233 531.3 89.4233 518.98ZM99.1833 518.98C99.1833 526.18 103.823 531.06 110.543 531.06C117.263 531.06 121.903 526.18 121.903 518.98C121.903 511.78 117.263 506.9 110.543 506.9C103.823 506.9 99.1833 511.78 99.1833 518.98Z" fill="#848585"/>
    <path d="M57.2001 539.78C40.1601 539.78 29.1201 527.94 29.1201 509.62C29.1201 491.46 40.5601 479.38 57.6801 479.38C71.5201 479.38 81.8401 487.46 83.8401 500.02H73.0401C71.0401 493.22 65.2001 489.22 57.4401 489.22C46.6401 489.22 39.8401 497.06 39.8401 509.54C39.8401 521.94 46.7201 529.94 57.4401 529.94C65.3601 529.94 71.4401 525.78 73.3601 519.3H84.0001C81.7601 531.62 71.0401 539.78 57.2001 539.78Z" fill="#848585"/>
    <path d="M490.333 494.82C490.333 484.1 499.373 476.5 512.093 476.5C524.813 476.5 532.813 483.54 532.813 494.74H519.933C519.933 490.58 516.813 488.02 511.933 488.02C506.653 488.02 503.293 490.42 503.293 494.34C503.293 497.94 505.133 499.7 509.293 500.58L518.173 502.42C528.733 504.58 533.773 509.62 533.773 518.98C533.773 530.42 524.813 537.86 511.213 537.86C498.013 537.86 489.453 530.74 489.453 519.62H502.333C502.333 523.94 505.533 526.34 511.293 526.34C517.133 526.34 520.813 524.02 520.813 520.26C520.813 516.98 519.293 515.3 515.373 514.5L506.333 512.66C495.773 510.5 490.333 504.5 490.333 494.82Z" fill="#606060"/>
    <path d="M433.907 536.82H421.347V477.62H433.907L451.507 521.78L469.187 477.62H481.907V536.82H469.347V524.42C469.347 511.62 469.347 508.82 469.987 504.42L457.427 536.82H445.587L433.107 504.42C433.827 508.82 433.907 513.78 433.907 520.26V536.82Z" fill="#606060"/>
    <path d="M384.76 537.78C367 537.78 355.88 526.02 355.88 507.3C355.88 488.82 367.64 476.66 385.32 476.66C400.12 476.66 410.76 485.14 412.6 498.42H398.92C397.16 492.5 392.12 489.14 385 489.14C375.4 489.14 369.56 495.94 369.56 507.22C369.56 518.34 375.48 525.3 385 525.3C392.28 525.3 397.64 521.7 399.24 515.86H412.68C410.6 529.06 399.56 537.78 384.76 537.78Z" fill="#606060"/>
    <path d="M112 219.756L276.756 55L441.512 219.756L276.756 384.512L112 219.756Z" fill="white"/>
    <path d="M155 220.33L277.329 98.0001L399.659 220.33L277.329 342.659L155 220.33Z" fill="#EB9722"/>
    <path d="M213.262 322.349L174 283.087L340.087 117L379.349 156.262L213.262 322.349Z" fill="#EB9722"/>
    <path d="M206 219.711L276.711 149L347.421 219.711L276.711 290.421L206 219.711Z" fill="white"/>
</svg>
